<?xml version="1.0" standalone="no"?><svg xmlns="http://www.w3.org/2000/svg" viewBox="0 0 1440 320"><path fill="#0099ff" fill-opacity="1" d="M0,96L10.9,96C21.8,96,44,96,65,117.3C87.3,139,109,181,131,181.3C152.7,181,175,139,196,117.3C218.2,96,240,96,262,80C283.6,64,305,32,327,58.7C349.1,85,371,171,393,176C414.5,181,436,107,458,96C480,85,502,139,524,170.7C545.5,203,567,213,589,208C610.9,203,633,181,655,144C676.4,107,698,53,720,53.3C741.8,53,764,107,785,112C807.3,117,829,75,851,53.3C872.7,32,895,32,916,58.7C938.2,85,960,139,982,160C1003.6,181,1025,171,1047,138.7C1069.1,107,1091,53,1113,48C1134.5,43,1156,85,1178,133.3C1200,181,1222,235,1244,218.7C1265.5,203,1287,117,1309,90.7C1330.9,64,1353,96,1375,106.7C1396.4,117,1418,107,1429,101.3L1440,96L1440,0L1429.1,0C1418.2,0,1396,0,1375,0C1352.7,0,1331,0,1309,0C1287.3,0,1265,0,1244,0C1221.8,0,1200,0,1178,0C1156.4,0,1135,0,1113,0C1090.9,0,1069,0,1047,0C1025.5,0,1004,0,982,0C960,0,938,0,916,0C894.5,0,873,0,851,0C829.1,0,807,0,785,0C763.6,0,742,0,720,0C698.2,0,676,0,655,0C632.7,0,611,0,589,0C567.3,0,545,0,524,0C501.8,0,480,0,458,0C436.4,0,415,0,393,0C370.9,0,349,0,327,0C305.5,0,284,0,262,0C240,0,218,0,196,0C174.5,0,153,0,131,0C109.1,0,87,0,65,0C43.6,0,22,0,11,0L0,0Z"></path></svg>